<svg width="81" height="81" viewBox="0 0 81 81" fill="none" xmlns="http://www.w3.org/2000/svg">
<path fill-rule="evenodd" clip-rule="evenodd" d="M40.5 9.421C57.665 9.421 71.579 23.3365 71.579 40.5C71.579 57.6635 57.665 71.579 40.5 71.579C23.3365 71.579 9.421 57.6635 9.421 40.5C9.421 23.3365 23.3365 9.421 40.5 9.421ZM40.5 0C51.6818 0 61.8084 4.5341 69.1379 11.8621C76.4659 19.1916 81 29.3166 81 40.5C81 51.6834 76.4659 61.81 69.1379 69.1379C61.81 76.4659 51.6834 81 40.5 81C29.3166 81 19.1916 76.4659 11.8621 69.1379C4.5341 61.8084 0 51.6818 0 40.5C0 29.3166 4.5341 19.1916 11.8621 11.8621C19.1916 4.5341 29.3166 0 40.5 0ZM66.3314 14.6686C59.7201 8.05887 50.587 3.96932 40.5 3.96932C30.4114 3.96932 21.2783 8.05887 14.6686 14.6686C8.05887 21.2783 3.96932 30.4114 3.96932 40.5C3.96932 50.587 8.05887 59.7201 14.6686 66.3314C21.2783 72.9411 30.4114 77.0307 40.5 77.0307C50.5886 77.0307 59.7217 72.9411 66.3314 66.3314C72.9411 59.7217 77.0307 50.5886 77.0307 40.5C77.0307 30.4114 72.9411 21.2783 66.3314 14.6686ZM44.7857 46.4152V51.3591H38.7993V55.6258H30.3006V51.3591H26.9135V46.4152H30.3006V43.7542H26.9135V38.8104H30.3006V25.3758H43.5454C46.9246 25.3758 49.5302 26.1288 51.3543 27.6349C53.1705 29.1426 54.0865 31.3748 54.0865 34.3459C54.0865 37.4024 53.1072 39.7327 51.1439 41.3385C49.1854 42.9506 46.3061 43.7542 42.5108 43.7542H38.7993V46.4152H44.7857ZM38.7993 38.8104H41.0869C42.0108 38.8104 42.7845 38.6902 43.4125 38.4592C44.0311 38.2266 44.5389 37.9165 44.9123 37.5226C45.292 37.135 45.5657 36.6841 45.7286 36.1763C45.8979 35.6701 45.9754 35.1496 45.9754 34.6133C45.9754 34.1561 45.9121 33.6973 45.7713 33.2337C45.6369 32.7607 45.398 32.3399 45.0594 31.9665C44.7209 31.5853 44.2637 31.2831 43.6799 31.0505C43.0945 30.818 42.3557 30.6993 41.4603 30.6993H38.7993V38.8104Z" fill="white"/>
</svg>
