<svg width="42" height="40" viewBox="0 0 42 40" fill="none" xmlns="http://www.w3.org/2000/svg">
<g filter="url(#filter0_d_184_5)">
<rect x="2" y="2" width="38" height="36" rx="10" fill="#4A4A4A"/>
<rect x="4" y="4" width="34" height="32" rx="8" stroke="#232323" stroke-width="4"/>
</g>
<path fill-rule="evenodd" clip-rule="evenodd" d="M17.8691 22.2102C17.9375 21.6582 16.248 19.5428 15.9395 18.5297C15.2773 17.509 15.043 15.885 15.7637 14.8055C16.0508 14.3767 15.9277 14.0048 15.9277 13.411C15.9277 7.52967 26.5273 7.52967 26.5273 13.411C26.5273 14.1547 26.3535 14.3293 26.7656 14.9155C27.459 15.8925 27.1035 17.6266 26.5176 18.5335C26.1406 19.5978 24.3691 21.6107 24.4922 22.214C24.6035 25.2306 17.8516 25.13 17.8691 22.214V22.2102ZM21.7324 27.4276H22.1055C22.2666 27.4271 22.421 27.3648 22.5351 27.2543C22.6492 27.1438 22.7138 26.994 22.7148 26.8375V25.8756C22.7148 25.7979 22.6991 25.7209 22.6685 25.6491C22.6378 25.5773 22.5929 25.5121 22.5364 25.4571C22.4798 25.4021 22.4126 25.3585 22.3387 25.3288C22.2647 25.299 22.1855 25.2837 22.1055 25.2837H19.8965C19.735 25.2842 19.5803 25.3467 19.4662 25.4576C19.352 25.5685 19.2876 25.7188 19.2871 25.8756V26.8375C19.2881 26.9942 19.3527 27.1442 19.4667 27.255C19.5808 27.3658 19.7352 27.4285 19.8965 27.4295H20.2754L19.5469 31.0114H22.4297L21.7324 27.4276ZM9 31.0114C9.28711 27.4067 8.55859 27.5528 11.666 26.4239C13.1928 25.8556 14.6556 25.1366 16.0313 24.2782L18.6875 31.0114H9ZM26.0977 23.9727C27.349 24.7864 28.7016 25.4423 30.123 25.925C33.0234 26.8622 33.0234 26.9931 32.9961 31.0114H23.3457L26.0977 23.9727Z" fill="#B7B7B7"/>
<defs>
<filter id="filter0_d_184_5" x="0" y="0" width="42" height="40" filterUnits="userSpaceOnUse" color-interpolation-filters="sRGB">
<feFlood flood-opacity="0" result="BackgroundImageFix"/>
<feColorMatrix in="SourceAlpha" type="matrix" values="0 0 0 0 0 0 0 0 0 0 0 0 0 0 0 0 0 0 127 0" result="hardAlpha"/>
<feMorphology radius="2" operator="dilate" in="SourceAlpha" result="effect1_dropShadow_184_5"/>
<feOffset/>
<feComposite in2="hardAlpha" operator="out"/>
<feColorMatrix type="matrix" values="0 0 0 0 0.704167 0 0 0 0 0.704167 0 0 0 0 0.704167 0 0 0 0.25 0"/>
<feBlend mode="normal" in2="BackgroundImageFix" result="effect1_dropShadow_184_5"/>
<feBlend mode="normal" in="SourceGraphic" in2="effect1_dropShadow_184_5" result="shape"/>
</filter>
</defs>
</svg>
