<svg width="23" height="22" viewBox="0 0 23 22" fill="none" xmlns="http://www.w3.org/2000/svg">
<g clip-path="url(#clip0_19_121)">
<path fill-rule="evenodd" clip-rule="evenodd" d="M0.0634766 21.9554L7.26848 0.0445557H8.61241L2.18204 21.9554H0.0634766ZM11.1902 1.41933H11.9237L12.0245 3.83545H11.0371L11.1902 1.41933ZM10.3931 16.8878H12.732L12.9167 20.7589L10.1057 20.7821L10.3931 16.8878ZM10.6115 11.3869H12.4482L12.661 14.8123H10.4398L10.6115 11.3869ZM10.9456 5.90564H12.1683L12.3288 9.33099H10.7739L10.9456 5.90564ZM9.02306 0.0445557H14.0031L19.0746 21.9554H4.07102L9.02306 0.0445557ZM14.41 0.0445557H15.8547L22.9366 21.9554H20.9244L14.41 0.0445557Z" fill="#71717A" stroke="#71717A" stroke-width="0.5" stroke-miterlimit="2.6131"/>
</g>
<defs>
<clipPath id="clip0_19_121">
<rect width="23" height="22" fill="white"/>
</clipPath>
</defs>
</svg>
