<svg width="27" height="27" viewBox="0 0 27 27" fill="none" xmlns="http://www.w3.org/2000/svg">
<path d="M3.09375 2.25C3.09375 1.78401 2.71599 1.40625 2.25 1.40625C1.78401 1.40625 1.40625 1.78401 1.40625 2.25V13.5646C1.40624 16.1615 1.40623 18.1966 1.61972 19.7846C1.83824 21.4099 2.29425 22.6925 3.30091 23.6991C4.30757 24.7058 5.59009 25.1617 7.21542 25.3803C8.80334 25.5937 10.8385 25.5937 13.4354 25.5937H24.75C25.216 25.5937 25.5937 25.216 25.5937 24.75C25.5937 24.284 25.216 23.9062 24.75 23.9062H13.5C10.8245 23.9062 8.90275 23.9044 7.44028 23.7078C6.00207 23.5145 5.13501 23.1468 4.49415 22.5058C3.85328 21.8649 3.48553 20.9979 3.29217 19.5597C3.09554 18.0972 3.09375 16.1755 3.09375 13.5V2.25Z" fill="#2D2D2D"/>
<path d="M7.41078 7.35031C7.12098 6.98539 6.59023 6.9245 6.22531 7.21429C5.86039 7.50409 5.7995 8.03484 6.08929 8.39975L9.6145 12.8388C9.86844 13.1585 10.085 13.4312 10.2773 13.6423C10.4772 13.8617 10.6973 14.0679 10.9746 14.2162C11.686 14.5965 12.5359 14.6149 13.2631 14.2659C13.5466 14.1299 13.7754 13.9335 13.9847 13.723C14.1861 13.5204 14.4142 13.2574 14.6818 12.9489L14.7 12.928C14.9908 12.5929 15.1815 12.3738 15.3375 12.2167C15.4903 12.0632 15.5606 12.0208 15.5924 12.0055C15.8349 11.8891 16.1181 11.8953 16.3553 12.0221C16.3864 12.0388 16.4548 12.0842 16.6006 12.2443C16.7498 12.4079 16.9308 12.6351 17.2067 12.9825L20.7144 17.3997C21.0042 17.7647 21.535 17.8255 21.9 17.5357C22.2649 17.2459 22.3258 16.7153 22.036 16.3503L18.5109 11.9114C18.257 11.5916 18.0404 11.3189 17.8482 11.1078C17.6482 10.8883 17.4281 10.6822 17.1509 10.5339C16.4395 10.1536 15.5895 10.1352 14.8623 10.4841C14.5788 10.6202 14.35 10.8166 14.1407 11.0271C13.9393 11.2297 13.7112 11.4927 13.4436 11.8012L13.4254 11.8221C13.1346 12.1572 12.9439 12.3763 12.7879 12.5333C12.6352 12.6869 12.5648 12.7293 12.533 12.7446C12.2907 12.8609 12.0073 12.8547 11.7701 12.7279C11.7391 12.7113 11.6706 12.666 11.5248 12.5059C11.3756 12.3422 11.1946 12.115 10.9187 11.7675L7.41078 7.35031Z" fill="#2D2D2D"/>
</svg>
