<svg width="42" height="42" viewBox="0 0 42 42" fill="none" xmlns="http://www.w3.org/2000/svg">
<rect x="0.752137" y="0.752137" width="39.8633" height="39.8633" rx="7.52137" fill="#D4D4D4"/>
<rect x="0.752137" y="0.752137" width="39.8633" height="39.8633" rx="7.52137" stroke="#343437" stroke-width="1.50427"/>
<path d="M24.9407 12.9793C25.4455 13.4842 26.2639 13.4842 26.7688 12.9793C27.2736 12.4745 27.2736 11.656 26.7688 11.1511L21.5978 5.98019C21.093 5.47535 20.2746 5.47535 19.7697 5.98019L14.5987 11.1511C14.0939 11.656 14.0939 12.4745 14.5987 12.9793C15.1036 13.4842 15.9221 13.4842 16.4269 12.9793L19.391 10.0152V24.1308C19.391 24.8447 19.9698 25.4235 20.6838 25.4235C21.3977 25.4235 21.9765 24.8447 21.9765 24.1308V10.0152L24.9407 12.9793Z" fill="#3C3C3F"/>
<path d="M35.7656 20.6834C35.7656 19.9694 35.1868 19.3906 34.4729 19.3906C33.759 19.3906 33.1802 19.9694 33.1802 20.6834C33.1802 27.585 27.5854 33.1798 20.6837 33.1798C13.7821 33.1798 8.18728 27.585 8.18728 20.6834C8.18728 19.9694 7.60849 19.3906 6.89454 19.3906C6.18059 19.3906 5.60181 19.9694 5.60181 20.6834C5.60181 29.0129 12.3542 35.7653 20.6837 35.7653C29.0132 35.7653 35.7656 29.0129 35.7656 20.6834Z" fill="#3C3C3F"/>
</svg>
