<svg width="42" height="42" viewBox="0 0 42 42" fill="none" xmlns="http://www.w3.org/2000/svg">
<rect x="1.38458" y="0.752137" width="39.8633" height="39.8633" rx="7.52137" fill="#D4D4D4"/>
<rect x="1.38458" y="0.752137" width="39.8633" height="39.8633" rx="7.52137" stroke="#343437" stroke-width="1.50427"/>
<path d="M25.5731 18.0458C26.078 17.5409 26.8963 17.5409 27.4012 18.0458C27.9061 18.5506 27.9061 19.369 27.4012 19.8739L22.2303 25.0448C21.7254 25.5497 20.907 25.5497 20.4022 25.0448L15.2312 19.8739C14.7263 19.369 14.7263 18.5506 15.2312 18.0458C15.736 17.5409 16.5545 17.5409 17.0594 18.0458L20.0235 21.0098V6.8943C20.0235 6.18035 20.6023 5.60156 21.3162 5.60156C22.0301 5.60156 22.6089 6.18035 22.6089 6.8943V21.0098L25.5731 18.0458Z" fill="#3C3C3F"/>
<path d="M36.3981 20.6834C36.3981 19.9694 35.8193 19.3906 35.1053 19.3906C34.3914 19.3906 33.8126 19.9694 33.8126 20.6834C33.8126 27.585 28.2178 33.1798 21.3162 33.1798C14.4146 33.1798 8.81972 27.585 8.81972 20.6834C8.81972 19.9694 8.24094 19.3906 7.52699 19.3906C6.81304 19.3906 6.23425 19.9694 6.23425 20.6834C6.23425 29.0129 12.9867 35.7653 21.3162 35.7653C29.6457 35.7653 36.3981 29.0129 36.3981 20.6834Z" fill="#3C3C3F"/>
</svg>
