<svg width="24" height="26" viewBox="0 0 24 26" fill="none" xmlns="http://www.w3.org/2000/svg">
<path d="M11.9999 2.97852C11.0214 2.97852 10.187 3.65563 9.87775 4.60344C9.73971 5.02652 9.31122 5.24828 8.92068 5.09874C8.53014 4.9492 8.32545 4.485 8.46349 4.06192C8.97792 2.48515 10.366 1.35352 11.9999 1.35352C13.6339 1.35352 15.0219 2.48515 15.5364 4.06192C15.6744 4.485 15.4697 4.9492 15.0792 5.09874C14.6886 5.24828 14.2601 5.02652 14.1221 4.60344C13.8129 3.65563 12.9784 2.97852 11.9999 2.97852Z" fill="black"/>
<path d="M2.75 6.5C2.75 6.05127 3.08579 5.6875 3.5 5.6875H20.5001C20.9143 5.6875 21.2501 6.05127 21.2501 6.5C21.2501 6.94873 20.9143 7.3125 20.5001 7.3125H3.5C3.08579 7.3125 2.75 6.94873 2.75 6.5Z" fill="black"/>
<path d="M5.91511 9.15497C5.88756 8.70723 5.53018 8.36847 5.11689 8.39831C4.70359 8.42816 4.39088 8.81532 4.41844 9.26306L4.88189 16.7941C4.96738 18.1838 5.03644 19.3062 5.19841 20.1871C5.36681 21.1028 5.65323 21.8678 6.24483 22.4673C6.83642 23.0669 7.55997 23.3256 8.41462 23.4467C9.23666 23.5632 10.2751 23.5632 11.5607 23.5632H12.4395C13.7251 23.5632 14.7635 23.5632 15.5856 23.4467C16.4402 23.3256 17.1638 23.0669 17.7554 22.4673C18.347 21.8678 18.6334 21.1028 18.8018 20.1871C18.9637 19.3062 19.0328 18.1838 19.1183 16.7941L19.5818 9.26306C19.6093 8.81532 19.2966 8.42816 18.8833 8.39831C18.47 8.36847 18.1126 8.70723 18.0851 9.15497L17.6251 16.629C17.5353 18.0892 17.4712 19.1052 17.3307 19.8696C17.1943 20.6111 17.004 21.0036 16.7306 21.2807C16.4572 21.5577 16.083 21.7374 15.391 21.8355C14.6776 21.9366 13.7376 21.9382 12.3868 21.9382H11.6134C10.2626 21.9382 9.32258 21.9366 8.60918 21.8355C7.91718 21.7374 7.54302 21.5577 7.2696 21.2807C6.99619 21.0036 6.80586 20.6111 6.66951 19.8696C6.52894 19.1052 6.46491 18.0892 6.37506 16.629L5.91511 9.15497Z" fill="black"/>
<path d="M9.42543 11.1076C9.83759 11.063 10.2051 11.3887 10.2464 11.8353L10.7464 17.2519C10.7876 17.6984 10.4869 18.0966 10.0747 18.1413C9.66253 18.1859 9.29499 17.8601 9.25378 17.4136L8.75378 11.9969C8.71256 11.5505 9.01327 11.1522 9.42543 11.1076Z" fill="black"/>
<path d="M15.2464 11.9969C15.2876 11.5505 14.9869 11.1522 14.5747 11.1076C14.1626 11.063 13.795 11.3887 13.7538 11.8353L13.2538 17.2519C13.2126 17.6984 13.5133 18.0966 13.9255 18.1413C14.3376 18.1859 14.7051 17.8601 14.7464 17.4136L15.2464 11.9969Z" fill="black"/>
</svg>
