<svg width="24" height="26" viewBox="0 0 24 26" fill="none" xmlns="http://www.w3.org/2000/svg">
<path d="M11.9999 2.979C11.0214 2.979 10.187 3.65612 9.87775 4.60393C9.73971 5.02701 9.31122 5.24877 8.92068 5.09923C8.53014 4.94968 8.32545 4.48549 8.46349 4.06241C8.97792 2.48564 10.366 1.354 11.9999 1.354C13.6339 1.354 15.0219 2.48564 15.5364 4.06241C15.6744 4.48549 15.4697 4.94968 15.0792 5.09923C14.6886 5.24877 14.2601 5.02701 14.1221 4.60393C13.8129 3.65612 12.9784 2.979 11.9999 2.979Z" fill="white"/>
<path d="M2.75 6.5C2.75 6.05127 3.08579 5.6875 3.5 5.6875H20.5001C20.9143 5.6875 21.2501 6.05127 21.2501 6.5C21.2501 6.94873 20.9143 7.3125 20.5001 7.3125H3.5C3.08579 7.3125 2.75 6.94873 2.75 6.5Z" fill="white"/>
<path d="M5.91511 9.15448C5.88756 8.70674 5.53018 8.36798 5.11689 8.39783C4.70359 8.42767 4.39088 8.81483 4.41844 9.26257L4.88189 16.7936C4.96738 18.1833 5.03644 19.3057 5.19841 20.1866C5.36681 21.1023 5.65323 21.8673 6.24483 22.4668C6.83642 23.0664 7.55997 23.3251 8.41462 23.4462C9.23666 23.5627 10.2751 23.5627 11.5607 23.5627H12.4395C13.7251 23.5627 14.7635 23.5627 15.5856 23.4462C16.4402 23.3251 17.1638 23.0664 17.7554 22.4668C18.347 21.8673 18.6334 21.1023 18.8018 20.1866C18.9637 19.3057 19.0328 18.1833 19.1183 16.7936L19.5818 9.26257C19.6093 8.81483 19.2966 8.42767 18.8833 8.39783C18.47 8.36798 18.1126 8.70674 18.0851 9.15448L17.6251 16.6285C17.5353 18.0887 17.4712 19.1047 17.3307 19.8691C17.1943 20.6106 17.004 21.0031 16.7306 21.2802C16.4572 21.5572 16.083 21.7369 15.391 21.835C14.6776 21.9361 13.7376 21.9377 12.3868 21.9377H11.6134C10.2626 21.9377 9.32258 21.9361 8.60918 21.835C7.91718 21.7369 7.54302 21.5572 7.2696 21.2802C6.99619 21.0031 6.80586 20.6106 6.66951 19.8691C6.52894 19.1047 6.46491 18.0887 6.37506 16.6285L5.91511 9.15448Z" fill="white"/>
<path d="M9.42543 11.1081C9.83759 11.0635 10.2051 11.3892 10.2464 11.8358L10.7464 17.2524C10.7876 17.6989 10.4869 18.0971 10.0747 18.1417C9.66253 18.1864 9.29499 17.8606 9.25378 17.4141L8.75378 11.9974C8.71256 11.551 9.01327 11.1527 9.42543 11.1081Z" fill="white"/>
<path d="M15.2464 11.9974C15.2876 11.551 14.9869 11.1527 14.5747 11.1081C14.1626 11.0635 13.795 11.3892 13.7538 11.8358L13.2538 17.2524C13.2126 17.6989 13.5133 18.0971 13.9255 18.1417C14.3376 18.1864 14.7051 17.8606 14.7464 17.4141L15.2464 11.9974Z" fill="white"/>
</svg>
